<svg xmlns="http://www.w3.org/2000/svg" viewBox="0 0 512 512">
  <!-- Simplified PostgreSQL elephant logo -->
  <path fill="#336791" d="M256 512c141.4 0 256-114.6 256-256S397.4 0 256 0S0 114.6 0 256S114.6 512 256 512zM192 128H160v64h32c17.7 0 32-14.3 32-32s-14.3-32-32-32zm-64 64v64h32c17.7 0 32-14.3 32-32s-14.3-32-32-32H128zm64 128H128v64h32c17.7 0 32-14.3 32-32s-14.3-32-32-32zm64-64c0 17.7 14.3 32 32 32h32V192H288c-17.7 0-32 14.3-32 32v64zm64 128h-32c-17.7 0-32-14.3-32-32s14.3-32 32-32h32v64z"/>
</svg>
